<svg width="128" height="128" viewBox="0 0 128 128" xmlns="http://www.w3.org/2000/svg"><path d="M83.2 21.4c-25.9 0-47.7 16-55.5 38.6L10.5 43.2C6.4 39.2 0 42.1 0 47.8v32.4c0 5.7 6.4 8.6 10.5 4.6L27.7 68c7.8 22.6 29.6 38.6 55.5 38.6 22.4 0 39.3-12.8 44.1-17.1 1-.9.9-2.6-.1-3.5L105.7 64l21.5-22c1-.9 1.1-2.6.1-3.5-4.8-4.3-21.7-17.1-44.1-17.1zm4.4 22.8a8.3 8.3 0 1 1 0 16.6 8.3 8.3 0 0 1 0-16.6zM44.3 64c5.8-12.4 18.6-20.8 33.6-20.8 2.5 0 4.5 2 4.5 4.5s-2 4.5-4.5 4.5c-10.8 0-20.1 6-24.5 14.8-1.1 2.2-3.8 3.2-6 2.1-2.2-1.1-3.1-3.8-2.1-6.1z"/></svg>
