<svg width="128" height="128" viewBox="0 0 128 128" xmlns="http://www.w3.org/2000/svg"><path d="M30 8h68c7.7 0 14 6.3 14 14v84c0 7.7-6.3 14-14 14H30c-7.7 0-14-6.3-14-14V22C16 14.3 22.3 8 30 8zm10 25c0 3.3 2.7 6 6 6h36c3.3 0 6-2.7 6-6s-2.7-6-6-6H46c-3.3 0-6 2.7-6 6zm0 28c0 3.3 2.7 6 6 6h36c3.3 0 6-2.7 6-6s-2.7-6-6-6H46c-3.3 0-6 2.7-6 6zm0 28c0 3.3 2.7 6 6 6h22c3.3 0 6-2.7 6-6s-2.7-6-6-6H46c-3.3 0-6 2.7-6 6zM98 21a14 14 0 0 1 14 14v69c0 5-2.6 9.4-6.5 11.9V35c0-3.9-3.1-7-7-7H27.1C29.5 23.8 34 21 39 21h59z"/></svg>
