<svg width="128" height="128" viewBox="0 0 128 128" xmlns="http://www.w3.org/2000/svg"><path d="M64 8c30.9 0 56 25.1 56 56s-25.1 56-56 56S8 94.9 8 64 33.1 8 64 8zm0 17c-21.5 0-39 17.5-39 39s17.5 39 39 39 39-17.5 39-39-17.5-39-39-39zm4 15v7h14c3.3 0 6 2.7 6 6s-2.7 6-6 6H68v7h11c8.8 0 16 7.2 16 16s-7.2 16-16 16H68v6c0 3.3-2.7 6-6 6s-6-2.7-6-6v-6H42c-3.3 0-6-2.7-6-6s2.7-6 6-6h14v-7H45c-8.8 0-16-7.2-16-16s7.2-16 16-16h11v-7c0-3.3 2.7-6 6-6s6 2.7 6 6zm-23 19a4 4 0 0 0 0 8h11v-8H45zm23 20v7h11a4 4 0 0 0 0-8H68z"/></svg>
